<svg width="16" height="13" viewBox="0 0 16 13" fill="none" xmlns="http://www.w3.org/2000/svg">
<path d="M5.08941 11.13C7.26542 11.13 9.02941 9.366 9.02941 7.19C9.02941 5.014 7.26542 3.25 5.08941 3.25C2.91341 3.25 1.14941 5.014 1.14941 7.19C1.14941 9.366 2.91341 11.13 5.08941 11.13Z" fill="#17BADB"/>
<path d="M7.05988 11.1295C8.40193 11.1295 9.48988 10.0416 9.48988 8.69953C9.48988 7.35748 8.40193 6.26953 7.05988 6.26953C5.71783 6.26953 4.62988 7.35748 4.62988 8.69953C4.62988 10.0416 5.71783 11.1295 7.05988 11.1295Z" fill="#BCF3FF"/>
<path d="M2.55965 11.9796C1.66965 10.8396 1.13965 9.40965 1.13965 7.84965C1.13965 4.14965 4.13965 1.13965 7.84965 1.13965C11.5596 1.13965 14.5596 4.13965 14.5596 7.84965C14.5596 9.42965 14.0196 10.8796 13.0996 12.0196" stroke="#17BADB" stroke-miterlimit="10" stroke-linecap="round" stroke-linejoin="round"/>
</svg>
